inDegrees=yes
name=ik_lifting_orientations
DataType=double
version=3
OpenSimVersion=4.5-2024-01-10-34fd6af
endheader
time	pelvis_tilt	pelvis_list	pelvis_rotation	pelvis_tx	pelvis_ty	pelvis_tz	hip_flexion_r	hip_adduction_r	hip_rotation_r	knee_angle_r	knee_angle_r_beta	ankle_angle_r	subtalar_angle_r	mtp_angle_r	hip_flexion_l	hip_adduction_l	hip_rotation_l	knee_angle_l	knee_angle_l_beta	ankle_angle_l	subtalar_angle_l	mtp_angle_l	lumbar_extension	lumbar_bending	lumbar_rotation	arm_flex_r	arm_add_r	arm_rot_r	elbow_flex_r	pro_sup_r	wrist_flex_r	wrist_dev_r	arm_flex_l	arm_add_l	arm_rot_l	elbow_flex_l	pro_sup_l	wrist_flex_l	wrist_dev_l
0.78	-10.87005771493614	-3.784468421331409	-138.3722386224741	0	0.9399999998679526	0	45.5726316862414	-11.70418991342564	0	59.5770132022886	1.039815038884067	-5.78793020506601	0	0	45.5726316862414	-11.70418991342564	0	59.5770132022886	1.039815038884067	-5.78793020506601	0	0	-45.65530070599057	-5.307562475315051	72.21979028789424	17.26699583462112	-33.79738707183316	-10.4970543834118	8.483972073714906	3.662861905134366	0	0	0	-10.07058975378929	0	86.44712279621925	3.662861905134366	0	0
0.79	-10.44603589984179	-3.71937057929069	-137.8428733691486	0	0.9399999998679526	0	45.5725135248659	-11.70298609204386	0	59.57708290951103	1.03981625550461	-5.787208295321146	0	0	45.5725135248659	-11.70298609204386	0	59.57708290951103	1.03981625550461	-5.787208295321146	0	0	-45.09650286512096	-5.04986856887616	71.67895881356901	17.04555304287593	-33.73619597409034	-10.60900594384504	8.756296071561858	3.662331741252205	0	0	0	-10.07111796786595	0	86.44763696903681	3.662331741252205	0	0
0.8	-10.23106252497051	-3.663156659038059	-137.5017718016151	0	0.9399999998679526	0	45.57237390835495	-11.70153519715315	0	59.57716398979563	1.039817670622535	-5.786334925695785	0	0	45.57237390835495	-11.70153519715315	0	59.57716398979563	1.039817670622535	-5.786334925695785	0	0	-44.78289410095982	-4.903256800300125	71.52314393014422	17.03070594056569	-33.77025856959926	-10.58946373810184	9.041081850791903	3.66170906945743	0	0	0	-10.07173517966211	0	86.44824085756544	3.66170906945743	0	0
0.8100000000000001	-10.06952946082323	-3.645887271281911	-137.0048575979863	0	0.9399999998679526	0	45.5722705076882	-11.70046693245225	0	59.5772242923332	1.039818723100363	-5.785692690942299	0	0	45.5722705076882	-11.70046693245225	0	59.5772242923332	1.039818723100363	-5.785692690942299	0	0	-44.38236044965167	-4.522415545667276	71.0565661865826	16.9671678409607	-33.57778146529868	-10.15970089999901	9.321797252327595	3.661247144310953	0	0	0	-10.07219370079004	0	86.4486888488689	3.661247144310953	0	0
0.82	-9.701741082504661	-3.575108978618455	-136.4771848380873	0	0.9399999998679526	0	45.57213484615944	-11.69906477533525	0	59.57730335109504	1.03982010293606	-5.784849759581614	0	0	45.57213484615944	-11.69906477533525	0	59.57730335109504	1.03982010293606	-5.784849759581614	0	0	-43.73458133555449	-4.157230111220035	70.41400341813453	16.91856142421915	-33.2773337209866	-9.524805310257685	9.564861586687002	3.660641241218524	0	0	0	-10.07279500798275	0	86.44927647499435	3.660641241218524	0	0
0.83	-9.2978819446092	-3.487075213606341	-135.8903411462449	0	0.9399999998679526	0	45.57200847262106	-11.6977619626421	0	59.57737711762778	1.039821390404934	-5.784067035491121	0	0	45.57200847262106	-11.6977619626421	0	59.57737711762778	1.039821390404934	-5.784067035491121	0	0	-42.90769954715282	-3.692764270480758	69.55347472101549	16.77017517180562	-32.88217224903619	-8.66960107035699	9.824323510645666	3.660076438859103	0	0	0	-10.07335584104397	0	86.44982424038649	3.660076438859103	0	0
0.84	-8.951929458058766	-3.396834782741501	-135.5330316963236	0	0.9399999998679526	0	45.57184454655849	-11.69606449030264	0	59.57747241977498	1.039823053741187	-5.783046494446354	0	0	45.57184454655849	-11.69606449030264	0	59.57747241977498	1.039823053741187	-5.783046494446354	0	0	-42.23579917849329	-3.421006312216996	68.89585578444741	16.84903565047694	-32.68412690872869	-7.991906662603472	9.965398288746904	3.659344890865229	0	0	0	-10.074081309175	0	86.45053372106025	3.659344890865229	0	0
0.85	-8.613268598950828	-3.292557042351995	-135.438523506335	0	0.9399999998679526	0	45.57162645820191	-11.69380120442215	0	59.57759891439036	1.039825261488711	-5.781685464568652	0	0	45.57162645820191	-11.69380120442215	0	59.57759891439036	1.039825261488711	-5.781685464568652	0	0	-41.18362824149771	-3.166620997138164	68.18531277702927	16.74766142783313	-32.09123283671052	-7.13875582224739	10.21422084151854	3.658372433646502	0	0	0	-10.07504498360538	0	86.4514768434738	3.658372433646502	0	0
0.86	-8.137288924643027	-3.147371594711765	-135.12430490159	0	0.9399999998679526	0	45.5714532235903	-11.69201013852424	0	59.57769962385348	1.03982701920043	-5.780609415434864	0	0	45.5714532235903	-11.69201013852424	0	59.57769962385348	1.03982701920043	-5.780609415434864	0	0	-39.94960350671252	-2.817210217523506	67.30474768730043	16.76196889774518	-31.39492242219651	-6.213717662216958	10.33927068550947	3.657599239248654	0	0	0	-10.07581179884241	0	86.4522267143507	3.657599239248654	0	0
0.87	-7.667049021565593	-3.004572589753882	-134.8242753620467	0	0.9399999998679526	0	45.57130250013034	-11.69045324503876	0	59.57778725581137	1.039828548666626	-5.779674403126528	0	0	45.57130250013034	-11.69045324503876	0	59.57778725581137	1.039828548666626	-5.779674403126528	0	0	-38.81677701301221	-2.625499936224192	66.77003329258501	16.81600796476259	-30.75061566591849	-5.471929728329139	10.3781057915465	3.656926442507506	0	0	0	-10.07647909029852	0	86.45287921612643	3.656926442507506	0	0
0.88	-7.099159775250613	-2.859743571176169	-134.2096585209457	0	0.9399999998679526	0	45.57033851362257	-11.68058753133544	0	59.57834940699774	1.039838360055722	-5.773767834535259	0	0	45.57033851362257	-11.68058753133544	0	59.57834940699774	1.039838360055722	-5.773767834535259	0	0	-38.40446772720082	-1.920853929726221	64.1369565958791	18.069636447171	-30.40581542313473	-2.512538283306388	10.29339635868225	3.652616708582655	0	0	0	-10.08075819820183	0	86.45705895001905	3.652616708582655	0	0
0.89	-6.588687754866517	-2.72060745099918	-133.7204625807979	0	0.9399999998679526	0	45.56348451268781	-11.63285591772156	0	59.58340676486862	1.03992662760202	-5.747619478674528	0	0	45.56348451268781	-11.63285591772156	0	59.58340676486862	1.03992662760202	-5.747619478674528	0	0	-38.13384378789587	-1.108938130664209	61.14377713424662	19.56803018315957	-30.09390393822429	0.794746011471277	10.20734821780603	3.61887428033008	0	0	0	-10.11691983107002	0	86.48978517498713	3.61887428033008	0	0
